PathFileType	4	(X/Y/Z)	pose_F01_0-89.trc
DataRate	CameraRate	NumFrames	NumMarkers	Units	OrigDataRate	OrigDataStartFrame	OrigNumFrames
30	30	6	21	m	30	22	89
Frame#	Time	CHip			RHip			RKnee			RAnkle			RBigToe			RSmallToe			RHeel			LHip			LKnee			LAnkle			LBigToe			LSmallToe			LHeel			Neck			Nose			RShoulder			RElbow			RWrist			LShoulder			LElbow			LWrist			
		X1	Y1	Z1	X2	Y2	Z2	X3	Y3	Z3	X4	Y4	Z4	X5	Y5	Z5	X6	Y6	Z6	X7	Y7	Z7	X8	Y8	Z8	X9	Y9	Z9	X10	Y10	Z10	X11	Y11	Z11	X12	Y12	Z12	X13	Y13	Z13	X14	Y14	Z14	X15	Y15	Z15	X16	Y16	Z16	X17	Y17	Z17	X18	Y18	Z18	X19	Y19	Z19	X20	Y20	Z20	X21	Y21	Z21	
22	0.7333333333333333	-0.12886488469593502	1.8378802368382756	-0.6332548254934881	-0.1396019648802037	1.836097224144357	-0.5787994988323318	-0.1426622330371605	1.7074510814861261	-0.5589232461695086	-0.14262018439353263	1.5811949566344388	-0.5345208006148375	-0.1804589026516247	1.5517880471895633	-0.508083584064185	-0.17479208230677232	1.5567769347483873	-0.4928952224873176	-0.13522575832146672	1.5735239659352602	-0.5409566198198221	-0.11756991184187529	1.8369342485135	-0.6987957175170193	-0.11216383317719042	1.7076372399939088	-0.6729386334331763	-0.10609601709558641	1.582269012952809	-0.6495512775015908	-0.15226053044247193	1.5484270736620913	-0.6484793703210812	-0.26342478858683077	1.4933089892430216	-1.143009344660461	-0.23343081117452352	1.5086361979223673	-1.2155929671852714	-0.11311151692328734	1.9851655524154104	-0.6621090728954653	-0.16168551791820868	2.0240201467479415	-0.6337867311819996	-0.125654872417096	1.9819307642040014	-0.5829138560666305	-0.15190987680465848	1.9162971679062315	-0.553763362140757	-1.6836806980754888	1.8868626976792093	1.0629711569566849	-0.09906905260692354	1.9871745895062825	-0.741169788044338	-0.09352372501469529	1.9092586215746188	-0.7685724023714352	-0.10769361967594042	1.832252799696122	-0.7698440910864829
23	0.7666666666666667	-0.125036541361443	1.8366367855978392	-0.6376362319866262	-0.13785732675816487	1.8350176901173212	-0.5809384269899707	-0.14090511767822264	1.7076911536595452	-0.5607329781027682	-0.1405814415039426	1.58453157677775	-0.5369330151415244	-0.17722084549441747	1.55393713535938	-0.4982348181664195	-0.16927487717633338	1.5575918611796933	-0.4761503766722924	-0.13090566107129917	1.5754018910603103	-0.5460613630910589	-0.11577942417018403	1.8358288139674641	-0.7009398156097038	-0.10951195007773028	1.7050349409161414	-0.6712746446508768	-0.24271511244633995	1.5165245636638303	-1.1976923470903074	-0.1517055470228736	1.548106060521818	-0.6363488768087269	-0.26650541339764544	1.4909692877042442	-1.141761001531108	-0.23023735172371904	1.5055997554507714	-1.2152189846451178	-0.11106361790431911	1.9849544502357013	-0.6644340017194121	-0.1607974746887957	2.0254910803857267	-0.6310693651050585	-0.125673773075908	1.9818278076838827	-0.582939580461572	-0.15015163750507693	1.9164810145448798	-0.5472473066484459	-1.6836528662441077	1.8872813573019698	1.0628155749873236	-0.09551489031699166	1.9862283824444802	-0.748964216965711	-0.09124357308090811	1.9055718997378726	-0.7705287986820077	-0.10849736479526297	1.8274710681099269	-0.7723850517588003
24	0.8	-0.12078963927897131	1.838130037138782	-0.6424810884017185	-0.1315600392480843	1.8353506440458327	-0.5879118191212358	-0.13773482231365006	1.7063299543161536	-0.5598393047471288	-0.13866020650183353	1.5831139358845654	-0.5214368289784924	-0.17314938388283235	1.5559296961190592	-0.4855437661400739	-0.16739500804885324	1.5607198079140043	-0.4699088922788683	-0.1310966982403111	1.574731711500982	-0.5372157389532323	-0.11058363288022094	1.8385407432702625	-0.7029525813530432	-0.10919663963850279	1.7062623894281308	-0.6717244436745546	-0.2404069186829846	1.5159454360726095	-1.2013428391916436	-0.14938281354678826	1.5500415099011156	-0.639214213834061	-0.266574328323117	1.493365164373377	-1.1426280407736884	-0.22940891511984576	1.5037193098705905	-1.2121694958536442	-0.11105875554593762	1.984939778106217	-0.6644525725940474	-0.15792917444911023	2.0246953572440822	-0.6302452609182179	-1.816109443488168	1.8923580738660044	1.2977071997255443	-0.14827179816750038	1.9187291275969078	-0.5412700624977245	-1.7012078234538213	1.8875123456103537	1.0947590150481465	-0.0998615900078865	1.9871285973523802	-0.744211933499655	-0.09319564300794204	1.9091736873008147	-0.7686705808497394	-0.10881432639515998	1.8274970445738739	-0.7723858462786535
25	0.8333333333333334	-0.11768759585841727	1.8342600225741224	-0.6411832403488718	-0.12865653223268064	1.834110009703081	-0.5870514944508491	-0.13780655159724925	1.7076934034354425	-0.5596313383264169	-0.1365844415257899	1.5823316578953177	-0.5148615906909053	-0.17377735672739222	1.5591004692181505	-0.480844634346242	-0.1677519054634791	1.563266628717151	-0.4652680377340811	-0.12903617074425328	1.5769682026336198	-0.5307048517064967	-0.10845799143575155	1.8334456407067805	-0.704599626427096	-0.10630097976014785	1.7068153821535021	-0.670778251878081	-0.24043999162451124	1.5158517362042339	-1.201471456916532	-0.150197182159925	1.5497134489367441	-0.6423980810994981	-0.2666112122923468	1.494657072095324	-1.142304037151211	-0.23030775565437128	1.5033780770835201	-1.2155694726249713	-0.11104961022283905	1.9832304539918035	-0.6645364665500064	-0.15796196853280173	2.0278122601141475	-0.630963398317122	-0.11648450325030892	1.9816989224828665	-0.5891795131461559	-0.1464628446209253	1.9201505512530943	-0.5439092965187877	-1.754185991309193	1.8899741514450852	1.1872982073650806	-0.10217080405589937	1.985442469150786	-0.74192567469625	-0.0957313795882998	1.9053416892770054	-0.7658283107241092	-0.10874379329526147	1.826560920640283	-0.7721090019214164
26	0.8666666666666667	-0.1151258797094164	1.8358718327434111	-0.640417105740433	-0.12660386775077997	1.8356709878046822	-0.5894372461093916	-0.13697787156925814	1.7076534649520168	-0.5563295290675918	-0.1321195472977719	1.5834756931600105	-0.5198966262380071	-0.17352852447117792	1.56063029676767	-0.4813911681409073	-0.1651564629388376	1.5652798050974703	-0.468967686371513	-0.12565563111800415	1.5778839459897567	-0.530628972581399	-0.10798781760663624	1.8347035229762068	-0.7014389606142275	-0.10571087665847673	1.705767803475265	-0.6672128801109833	-0.24033560310339788	1.5160274625975447	-1.2014582742607165	-0.15089532036204534	1.5484009659502442	-0.6459813820793776	-0.2665144565582218	1.4937289281263442	-1.1414589360135114	-0.23019067348800623	1.503709704336129	-1.2154522760424793	-0.11091580279175707	1.9841489582303236	-0.6644410789001465	-0.15848831149719075	2.0320804668419683	-0.6244001130864374	-0.11434717936485052	1.983984025380305	-0.5917386510283268	-0.13790072326575775	1.9261424127830107	-0.5333642369491297	-1.7645291517261776	1.89032596711491	1.2050954515730263	-0.10369843199294457	1.9855267814221695	-0.7364645085301377	-0.09808976987968471	1.9053234184717207	-0.7632302885309924	-0.11512414967765962	1.8245809820763021	-0.7614098741623367
27	0.9	-0.11447000405108404	1.8289570878260164	-0.6392955054896546	-0.12239198383729612	1.830088080716986	-0.5844045661294485	-0.13782066991975328	1.7075667722823997	-0.551169805987405	-0.13189520702529056	1.5848849633529227	-0.5204835718430882	-0.1755148307246995	1.5601911753843167	-0.4796800628723494	-0.16732027912280767	1.5660492932407908	-0.46687828514899155	-0.1254916229588268	1.57960861902323	-0.5312807655004899	-0.10489942995905882	1.8291558745875494	-0.6912125731909691	-0.1052481900058742	1.7055024458264325	-0.6676119460527218	-0.10396327008043005	1.582687793765282	-0.6519913511796197	-0.14932872248809387	1.5497167690213274	-0.6391978620530178	-0.26654135802578827	1.4951687008372627	-1.1424516296187703	-0.2293206724084123	1.5042246305957339	-1.2121826593105824	-0.11038405777202902	1.9824793368520697	-0.661222850279548	-0.16040458133791924	2.0311074797616864	-0.6210165679515179	-0.11424831530401736	1.9806200745171731	-0.5908301931914942	-0.13970932626487237	1.9278158366324234	-0.5312990162040173	-0.15577765881137517	1.9869716150393157	-0.5744385968699428	-0.10598668453092876	1.9839374261762257	-0.7335685085944064	-0.0976994276677572	1.9000965503876588	-0.7622641556892317	-0.11807139807532227	1.8202591507627752	-0.7497686856959969
